<svg width="24" height="24" viewBox="0 0 24 24" fill="none" xmlns="http://www.w3.org/2000/svg">
<g id="support-icon 1">
<path id="Vector" d="M11.9999 2C6.48598 2 2 6.486 2 12V16.143C2 17.1669 2.897 18 3.99998 18H4.99999C5.2652 18 5.51955 17.8947 5.70708 17.7071C5.89462 17.5195 5.99998 17.2652 5.99998 17V11.857C5.99998 11.5918 5.89462 11.3374 5.70708 11.1499C5.51955 10.9624 5.2652 10.857 4.99999 10.857H4.09199C4.64798 6.987 7.97796 3.99999 11.9999 3.99999C16.022 3.99999 19.3519 6.987 19.9079 10.857H19C18.7346 10.857 18.4804 10.9624 18.2928 11.1499C18.1053 11.3374 17.9999 11.5918 17.9999 11.857V18C17.9999 19.1031 17.1029 20 16 20H13.9999V19H9.99996V22H16C18.206 22 19.9999 20.206 19.9999 18C21.103 18 22 17.1669 22 16.143V12C22 6.486 17.514 2 11.9999 2Z" fill="white"/>
</g>
</svg>
