<svg width="25" height="24" viewBox="0 0 25 24" fill="none" xmlns="http://www.w3.org/2000/svg">
<g id="Frame 1000000770">
<path id="Union" d="M3.7716 10.2474L3.8131 10.2188L3.81474 10.1683C3.83349 9.59142 3.86872 9.10365 3.93447 8.68185C4.06918 7.81767 4.31783 7.33591 4.72735 6.98271C5.14442 6.623 5.72538 6.39962 6.75387 6.28035C7.80101 6.15893 9.18171 6.15751 11.1266 6.15751H14.186C16.1309 6.15751 17.5116 6.15893 18.5587 6.28035C19.5872 6.39962 20.1682 6.623 20.5852 6.98271C21.0495 7.38308 21.3045 7.94569 21.4243 9.03602H19.6308C17.518 9.03602 15.6813 10.4968 15.6813 12.4344C15.6813 14.3719 17.518 15.8327 19.6308 15.8327H21.4243C21.3045 16.923 21.0494 17.4855 20.5852 17.8859C20.1682 18.2456 19.5872 18.469 18.5587 18.5883C17.5116 18.7097 16.1309 18.7111 14.186 18.7111H13.1819H13.1354L13.1054 18.7467C12.6848 19.2466 12.1803 19.6855 11.6107 20.0459L11.3192 20.2304H11.6642H14.2382H14.2448C16.118 20.2304 17.6028 20.2305 18.7652 20.0957C19.9583 19.9573 20.9362 19.6655 21.714 18.9947C22.6769 18.1642 22.986 17.0515 23.0992 15.6456C23.64 15.3974 24.0493 14.9157 24.0966 14.3052C24.101 14.2483 24.101 14.188 24.101 14.1363V14.1345L24.101 14.1202V14.1201V10.7486V10.7485L24.101 10.7342V10.7324C24.101 10.6807 24.101 10.6204 24.0966 10.5635C24.0493 9.95307 23.64 9.47134 23.0992 9.22314C22.9861 7.81717 22.6769 6.70441 21.714 5.8739C20.9362 5.20313 19.9583 4.91129 18.7652 4.77294C18.1408 4.70054 17.4245 4.6671 16.6063 4.65159V3.35845C16.6063 2.54499 16.1435 1.7945 15.3634 1.33462C14.594 0.874838 13.6006 0.774768 12.7262 1.05874C12.7261 1.05876 12.7261 1.05877 12.726 1.05879L4.41069 3.72542L4.41044 3.72551C2.92247 4.20705 1.90098 5.43967 1.90098 6.81635V11.7676C1.90098 11.8134 1.90575 11.8583 1.91486 11.902L1.96353 12.1355L2.09593 11.9372C2.53277 11.2828 3.1025 10.7092 3.7716 10.2474ZM14.8354 3.35845V4.63834C14.6409 4.63817 14.4419 4.63817 14.2383 4.63817H11.0743H11.0679C9.19461 4.63816 7.7098 4.63815 6.54739 4.77294C6.34618 4.79627 6.15107 4.82397 5.96201 4.85712L13.3321 2.49363L13.3329 2.49336C13.6826 2.37795 14.0508 2.41915 14.3613 2.60034C14.67 2.78044 14.8354 3.06086 14.8354 3.35845ZM22.2524 10.5558L22.2525 10.5559L22.2533 10.5559C22.2533 10.5559 22.2533 10.5559 22.2533 10.5559C22.4066 10.5646 22.4464 10.6505 22.45 10.6701L22.4502 10.6779C22.4502 10.678 22.4502 10.6781 22.4502 10.6782C22.4504 10.6929 22.4504 10.7129 22.4504 10.7485V14.1202C22.4504 14.1561 22.4504 14.1761 22.4502 14.1909L22.45 14.1987C22.4464 14.2182 22.4065 14.3043 22.2528 14.3129L22.2527 14.3129L22.2527 14.3129L22.2526 14.3129L22.2526 14.3129L22.252 14.3129L22.2509 14.3129L22.2338 14.3132C22.2337 14.3132 22.2336 14.3132 22.2335 14.3132C22.2145 14.3134 22.1893 14.3134 22.1475 14.3134H19.6308C18.2937 14.3134 17.3318 13.4124 17.3318 12.4344C17.3318 11.4564 18.2937 10.5554 19.6308 10.5554H22.1475C22.1895 10.5554 22.2147 10.5554 22.2338 10.5556L22.2509 10.5558L22.2524 10.5558ZM7.23327 10.6181H12.0684C12.511 10.6181 12.8937 10.283 12.8937 9.85841C12.8937 9.43386 12.511 9.09875 12.0684 9.09875H7.23327C6.7907 9.09875 6.408 9.43386 6.408 9.85841C6.408 10.283 6.7907 10.6181 7.23327 10.6181Z" fill="#FBFBFB" stroke="#FBFBFB" stroke-width="0.2"/>
<path id="Union_2" d="M20 13C20.5523 13 21 12.5523 21 12C21 11.4477 20.5523 11 20 11C19.4477 11 19 11.4477 19 12C19 12.5523 19.4477 13 20 13Z" fill="#FBFBFB"/>
<g id="Union_3">
<path fill-rule="evenodd" clip-rule="evenodd" d="M6.61624 13.6914C6.61624 13.2772 6.28045 12.9414 5.86624 12.9414C5.45203 12.9414 5.11624 13.2772 5.11624 13.6914V16.7886H2.01904C1.60483 16.7886 1.26904 17.1244 1.26904 17.5386C1.26904 17.9528 1.60483 18.2886 2.01904 18.2886H5.11624V21.3858C5.11624 21.8001 5.45202 22.1358 5.86624 22.1358C6.28045 22.1358 6.61624 21.8001 6.61624 21.3858V18.2886H9.71351C10.1277 18.2886 10.4635 17.9528 10.4635 17.5386C10.4635 17.1244 10.1277 16.7886 9.71351 16.7886H6.61624V13.6914Z" fill="#FFFF00"/>
<path d="M5.11624 16.7886V17.2886C5.39238 17.2886 5.61624 17.0647 5.61624 16.7886H5.11624ZM5.11624 18.2886H5.61624C5.61624 18.0124 5.39238 17.7886 5.11624 17.7886V18.2886ZM6.61624 18.2886V17.7886C6.3401 17.7886 6.11624 18.0124 6.11624 18.2886H6.61624ZM6.61624 16.7886H6.11624C6.11624 17.0647 6.3401 17.2886 6.61624 17.2886V16.7886ZM5.86624 13.4414C6.00431 13.4414 6.11624 13.5533 6.11624 13.6914H7.11624C7.11624 13.001 6.5566 12.4414 5.86624 12.4414V13.4414ZM5.61624 13.6914C5.61624 13.5533 5.72817 13.4414 5.86624 13.4414V12.4414C5.17588 12.4414 4.61624 13.001 4.61624 13.6914H5.61624ZM5.61624 16.7886V13.6914H4.61624V16.7886H5.61624ZM2.01904 17.2886H5.11624V16.2886H2.01904V17.2886ZM1.76904 17.5386C1.76904 17.4005 1.88097 17.2886 2.01904 17.2886V16.2886C1.32869 16.2886 0.769043 16.8482 0.769043 17.5386H1.76904ZM2.01904 17.7886C1.88097 17.7886 1.76904 17.6766 1.76904 17.5386H0.769043C0.769043 18.2289 1.32869 18.7886 2.01904 18.7886V17.7886ZM5.11624 17.7886H2.01904V18.7886H5.11624V17.7886ZM5.61624 21.3858V18.2886H4.61624V21.3858H5.61624ZM5.86624 21.6358C5.72817 21.6358 5.61624 21.5239 5.61624 21.3858H4.61624C4.61624 22.0762 5.17588 22.6358 5.86624 22.6358V21.6358ZM6.11624 21.3858C6.11624 21.5239 6.00431 21.6358 5.86624 21.6358V22.6358C6.55659 22.6358 7.11624 22.0762 7.11624 21.3858H6.11624ZM6.11624 18.2886V21.3858H7.11624V18.2886H6.11624ZM9.71351 17.7886H6.61624V18.7886H9.71351V17.7886ZM9.96351 17.5386C9.96351 17.6766 9.85158 17.7886 9.71351 17.7886V18.7886C10.4039 18.7886 10.9635 18.2289 10.9635 17.5386H9.96351ZM9.71351 17.2886C9.85158 17.2886 9.96351 17.4005 9.96351 17.5386H10.9635C10.9635 16.8482 10.4039 16.2886 9.71351 16.2886V17.2886ZM6.61624 17.2886H9.71351V16.2886H6.61624V17.2886ZM6.11624 13.6914V16.7886H7.11624V13.6914H6.11624Z" fill="#FFFF00"/>
</g>
</g>
</svg>
