<svg width="16" height="16" viewBox="0 0 16 16" fill="none" xmlns="http://www.w3.org/2000/svg">
<g id="Wallet">
<rect width="16" height="16" rx="8" fill="url(#paint0_linear_3701_37092)"/>
<g id="dollar-circle">
<g id="Group 1000004368">
<path id="Vector" d="M8.87089 11.5292H7.21052C6.12567 11.5292 5.24587 10.6163 5.24587 9.49173C5.24587 9.22052 5.47078 8.99561 5.742 8.99561C6.01321 8.99561 6.23812 9.22052 6.23812 9.49173C6.23812 10.0672 6.67471 10.5369 7.21052 10.5369H8.87089C9.30086 10.5369 9.65807 10.1532 9.65807 9.69018C9.65807 9.11468 9.453 9.00223 9.11564 8.88316L6.4498 7.94383C5.93383 7.76522 5.23926 7.38155 5.23926 6.19747C5.23926 5.17876 6.03967 4.35851 7.01869 4.35851H8.67905C9.76391 4.35851 10.6437 5.27137 10.6437 6.39592C10.6437 6.66714 10.4188 6.89205 10.1476 6.89205C9.87636 6.89205 9.65145 6.66714 9.65145 6.39592C9.65145 5.82042 9.21486 5.35075 8.67905 5.35075H7.01869C6.58872 5.35075 6.23151 5.73442 6.23151 6.19747C6.23151 6.77298 6.43657 6.88543 6.77393 7.0045L9.43977 7.94383C9.95574 8.12243 10.6503 8.5061 10.6503 9.69018C10.6437 10.7023 9.8499 11.5292 8.87089 11.5292Z" fill="white"/>
<path id="Vector_2" d="M7.94437 12.4094C7.67315 12.4094 7.44824 12.1845 7.44824 11.9133V3.97528C7.44824 3.70407 7.67315 3.47916 7.94437 3.47916C8.21558 3.47916 8.44049 3.70407 8.44049 3.97528V11.9133C8.44049 12.1845 8.21558 12.4094 7.94437 12.4094Z" fill="white"/>
<path id="Vector_3" d="M7.94461 15.0556C4.02192 15.0556 0.833496 11.8671 0.833496 7.94444C0.833496 4.02175 4.02192 0.833328 7.94461 0.833328C11.8673 0.833328 15.0557 4.02175 15.0557 7.94444C15.0557 11.8671 11.8673 15.0556 7.94461 15.0556ZM7.94461 1.82558C4.57096 1.82558 1.82574 4.5708 1.82574 7.94444C1.82574 11.3181 4.57096 14.0633 7.94461 14.0633C11.3183 14.0633 14.0635 11.3181 14.0635 7.94444C14.0635 4.5708 11.3183 1.82558 7.94461 1.82558Z" fill="white"/>
</g>
</g>
</g>
<defs>
<linearGradient id="paint0_linear_3701_37092" x1="8" y1="0" x2="8" y2="16" gradientUnits="userSpaceOnUse">
<stop stop-color="#FFB800"/>
<stop offset="1" stop-color="#FF7A00"/>
</linearGradient>
</defs>
</svg>
