<svg width="24" height="24" viewBox="0 0 24 24" fill="none" xmlns="http://www.w3.org/2000/svg">
<g id="ICON_Withdrawal">
<g id="withdrawMoney">
<g id="Group">
<g id="Group_2">
<g id="Group_3">
<path id="Vector" d="M14.3157 11.4897H5.01781C4.54778 11.4897 4.16675 11.8707 4.16675 12.3407C4.16675 12.8108 4.54778 13.1918 5.01781 13.1918H14.3157C14.7857 13.1918 15.1668 12.8108 15.1668 12.3407C15.1668 11.8707 14.7857 11.4897 14.3157 11.4897Z" fill="#FBFBFB"/>
<path id="Vector_2" d="M20.1668 4H3.83351C2.45499 4 1.3335 5.14536 1.3335 6.5532V17.4468C1.3335 18.8546 2.45499 20 3.83351 20H6.08351V18.2979H3.83351C3.374 18.2979 3.00017 17.9161 3.00017 17.4468V10.2128H21.0002V17.4468C21.0002 17.9161 20.6263 18.2979 20.1668 18.2979H17.9585V20H20.1668C21.5453 20 22.6668 18.8546 22.6668 17.4468V6.5532C22.6668 5.14536 21.5453 4 20.1668 4ZM21.0002 7.65956H3.00017V6.5532C3.00017 6.08392 3.374 5.70213 3.83351 5.70213H20.1669C20.6264 5.70213 21.0002 6.08392 21.0002 6.5532V7.65956H21.0002Z" fill="#FBFBFB"/>
</g>
</g>
</g>
<g id="Group 1000004193">
<path id="path77143" d="M11.8553 14.5591C11.6996 14.5585 11.5453 14.5871 11.4013 14.6433C11.2572 14.6995 11.1263 14.7822 11.0159 14.8866C10.9055 14.991 10.8179 15.1151 10.7581 15.2517C10.6983 15.3884 10.6674 15.5349 10.6672 15.6829V21.584C10.6674 21.732 10.6983 21.8785 10.7581 22.0152C10.8179 22.1518 10.9055 22.2759 11.0159 22.3803C11.1263 22.4847 11.2572 22.5674 11.4013 22.6236C11.5453 22.6798 11.6996 22.7084 11.8553 22.7078C12.1688 22.7075 12.4693 22.589 12.691 22.3783C12.9126 22.1677 13.0373 21.882 13.0376 21.584V15.6829C13.0373 15.3849 12.9126 15.0992 12.691 14.8886C12.4693 14.6779 12.1688 14.5594 11.8553 14.5591Z" fill="#FFFF00"/>
<path id="path77146" d="M9.09747 18.089C8.80758 18.0892 8.52951 18.2015 8.32379 18.4013C8.11749 18.6022 8.00105 18.8749 8.00001 19.1597C7.99897 19.4445 8.11342 19.718 8.31825 19.9203L11.2236 22.7731C11.429 22.975 11.7077 23.0889 11.9988 23.0899C12.2899 23.0909 12.5695 22.9789 12.7764 22.7786C12.9827 22.5777 13.0991 22.3049 13.1001 22.0202C13.1012 21.7354 12.9867 21.4619 12.7819 21.2595L9.87655 18.4067C9.77448 18.3062 9.6531 18.2264 9.5194 18.1719C9.3857 18.1174 9.24231 18.0891 9.09747 18.089Z" fill="#FFFF00"/>
<path id="path77149" d="M14.9031 18.0891C14.7583 18.0892 14.6149 18.1174 14.4812 18.1719C14.3475 18.2264 14.2261 18.3062 14.124 18.4067L11.2241 21.2595C11.0185 21.4611 10.9031 21.7343 10.9031 22.019C10.9031 22.3038 11.0185 22.5769 11.2241 22.7785C11.3266 22.8786 11.4483 22.9578 11.5822 23.0117C11.7161 23.0656 11.8596 23.093 12.0043 23.0925C12.1491 23.092 12.2924 23.0636 12.4259 23.0087C12.5594 22.9539 12.6805 22.8739 12.7823 22.7731L15.6822 19.9203C15.887 19.718 16.0015 19.4444 16.0004 19.1597C15.9994 18.8749 15.883 18.6022 15.6767 18.4013C15.4709 18.2015 15.193 18.0894 14.9031 18.0891Z" fill="#FFFF00"/>
</g>
</g>
</g>
</svg>
